<svg width="16" height="32" viewBox="0 0 16 32" fill="none" xmlns="http://www.w3.org/2000/svg">
<path d="M9.48158 7.61953C9.48158 7.94767 9.48158 9.0172 9.48158 10.5367H14.7058L14.1394 15.1937H9.48158C9.48158 22.3757 9.48158 32 9.48158 32H3.29912C3.29912 32 3.29912 22.5031 3.29912 15.1937H0.0776367V10.5367H3.29912C3.29912 8.68981 3.29912 7.37655 3.29912 7.0109C3.29912 5.26875 3.16786 4.44213 3.90812 3.09212C4.64876 1.74217 6.73784 -0.0421978 10.3511 0.000761164C13.9652 0.0452857 15.4886 0.392965 15.4886 0.392965L14.7058 5.35623C14.7058 5.35623 12.398 4.74685 11.2652 4.96403C10.1339 5.18126 9.48158 5.87813 9.48158 7.61953Z" fill="white"/>
</svg>
