<svg width="33" height="32" viewBox="0 0 33 32" fill="none" xmlns="http://www.w3.org/2000/svg">
<path fill-rule="evenodd" clip-rule="evenodd" d="M16.2192 24.7273C21.0392 24.7273 24.9465 20.8199 24.9465 16C24.9465 11.1801 21.0392 7.27273 16.2192 7.27273C11.3993 7.27273 7.49196 11.1801 7.49196 16C7.49196 20.8199 11.3993 24.7273 16.2192 24.7273ZM16.2192 21.8182C19.4325 21.8182 22.0374 19.2132 22.0374 16C22.0374 12.7867 19.4325 10.1818 16.2192 10.1818C13.0059 10.1818 10.4011 12.7867 10.4011 16C10.4011 19.2132 13.0059 21.8182 16.2192 21.8182Z" fill="white"/>
<path d="M24.9465 5.81818C24.1432 5.81818 23.492 6.46941 23.492 7.27273C23.492 8.07604 24.1432 8.72727 24.9465 8.72727C25.7499 8.72727 26.4011 8.07604 26.4011 7.27273C26.4011 6.46941 25.7499 5.81818 24.9465 5.81818Z" fill="white"/>
<path fill-rule="evenodd" clip-rule="evenodd" d="M1.17045 4.76518C0.219238 6.63204 0.219238 9.07591 0.219238 13.9636V18.0364C0.219238 22.9241 0.219238 25.368 1.17045 27.2348C2.00717 28.8769 3.34226 30.2121 4.98442 31.0487C6.85128 32 9.29515 32 14.1829 32H18.2556C23.1433 32 25.5872 32 27.454 31.0487C29.0962 30.2121 30.4313 28.8769 31.268 27.2348C32.2192 25.368 32.2192 22.9241 32.2192 18.0364V13.9636C32.2192 9.07591 32.2192 6.63204 31.268 4.76518C30.4313 3.12303 29.0962 1.78793 27.454 0.951214C25.5872 0 23.1433 0 18.2556 0H14.1829C9.29515 0 6.85128 0 4.98442 0.951214C3.34226 1.78793 2.00717 3.12303 1.17045 4.76518ZM18.2556 2.90909H14.1829C11.691 2.90909 9.99706 2.91136 8.68772 3.01833C7.41231 3.12253 6.7601 3.3114 6.30511 3.54323C5.21035 4.10105 4.32029 4.99111 3.76247 6.08588C3.53064 6.54086 3.34177 7.19308 3.23757 8.46848C3.1306 9.77782 3.12833 11.4718 3.12833 13.9636V18.0364C3.12833 20.5283 3.1306 22.2221 3.23757 23.5315C3.34177 24.807 3.53064 25.4592 3.76247 25.9142C4.32029 27.0089 5.21035 27.8989 6.30511 28.4567C6.7601 28.6886 7.41231 28.8775 8.68772 28.9817C9.99706 29.0886 11.691 29.0909 14.1829 29.0909H18.2556C20.7475 29.0909 22.4413 29.0886 23.7507 28.9817C25.0262 28.8775 25.6784 28.6886 26.1334 28.4567C27.2281 27.8989 28.1181 27.0089 28.676 25.9142C28.9078 25.4592 29.0968 24.807 29.2009 23.5315C29.3078 22.2221 29.3101 20.5283 29.3101 18.0364V13.9636C29.3101 11.4718 29.3078 9.77782 29.2009 8.46848C29.0968 7.19308 28.9078 6.54086 28.676 6.08588C28.1181 4.99111 27.2281 4.10105 26.1334 3.54323C25.6784 3.3114 25.0262 3.12253 23.7507 3.01833C22.4413 2.91136 20.7475 2.90909 18.2556 2.90909Z" fill="white"/>
</svg>
