<svg width="36" height="32" viewBox="0 0 36 32" fill="none" xmlns="http://www.w3.org/2000/svg">
<path d="M7.90958 10.2629H1.11758V32H7.90958V10.2629Z" fill="white"/>
<path d="M4.37066 0C1.8662 0 0.219238 1.61974 0.219238 3.77031C0.219238 5.88005 1.81175 7.54062 4.27538 7.54062H4.32983C6.88874 7.54062 8.48125 5.86644 8.46764 3.77031C8.4132 1.61974 6.87513 0 4.37066 0Z" fill="white"/>
<path d="M26.4617 10.0587C22.5689 10.0587 20.1325 12.182 19.6833 13.6793V10.2629H12.0474C12.1427 12.0732 12.0474 32 12.0474 32H19.6833V20.2535C19.6833 19.5866 19.6561 18.9332 19.8466 18.4704C20.3639 17.1638 21.4936 15.8026 23.5217 15.8026C26.1759 15.8026 27.3736 17.8171 27.3736 20.7571V32H35.0776V19.9132C35.0776 13.1893 31.2937 10.0587 26.4617 10.0587Z" fill="white"/>
</svg>
