<svg width="29" height="32" viewBox="0 0 29 32" fill="none" xmlns="http://www.w3.org/2000/svg">
<path d="M29.0001 7.99941V11.1991C29.0001 11.6234 28.8316 12.0303 28.5316 12.3304C28.2315 12.6304 27.8246 12.799 27.4003 12.799C25.1525 12.795 22.9453 12.199 21.0009 11.0711V21.5981C21.0014 23.4453 20.5099 25.2592 19.5769 26.8535C18.6439 28.4477 17.3031 29.7646 15.6924 30.6688C14.0817 31.5731 12.2592 32.0319 10.4124 31.9983C8.5655 31.9646 6.76094 31.4396 5.18426 30.4773C3.60757 29.515 2.31567 28.15 1.4414 26.5229C0.567138 24.8957 0.142064 23.065 0.209896 21.2191C0.277728 19.3732 0.836017 17.5787 1.82735 16.02C2.81869 14.4614 4.20728 13.195 5.85035 12.351C6.0962 12.22 6.372 12.1555 6.65044 12.1639C6.92887 12.1722 7.20031 12.2531 7.43788 12.3986C7.67546 12.544 7.87094 12.749 8.00498 12.9932C8.13902 13.2374 8.20697 13.5123 8.20212 13.7909V17.8225C8.18502 18.1982 8.02473 18.5531 7.75417 18.8144C7.17961 19.3956 6.7977 20.1394 6.66024 20.945C6.52278 21.7506 6.63642 22.579 6.98575 23.3178C7.33507 24.0566 7.90318 24.6701 8.61302 25.0751C9.32286 25.4801 10.1401 25.657 10.9539 25.5817C11.9758 25.4517 12.9136 24.9485 13.5869 24.1688C14.2602 23.3892 14.6216 22.3881 14.6015 21.3581V1.60002C14.6015 1.17571 14.7701 0.768784 15.0701 0.468754C15.3701 0.168724 15.7771 0.000169212 16.2014 0.000169212H19.577C19.9582 -0.0053722 20.3288 0.12535 20.6221 0.368795C20.9154 0.61224 21.1121 0.952409 21.1769 1.32804C21.4799 2.7566 22.2624 4.03856 23.3944 4.96108C24.5265 5.8836 25.94 6.39118 27.4003 6.39956C27.8246 6.39956 28.2315 6.56812 28.5316 6.86815C28.8316 7.16818 29.0001 7.5751 29.0001 7.99941Z" fill="white"/>
</svg>
