<svg width="47" height="32" viewBox="0 0 47 32" fill="none" xmlns="http://www.w3.org/2000/svg">
<path fill-rule="evenodd" clip-rule="evenodd" d="M18.7478 21.9111V9.08411C23.3014 11.2268 26.8282 13.2967 30.9993 15.5283C27.559 17.4362 23.3014 19.5769 18.7478 21.9111ZM44.1251 2.70465C43.3396 1.66977 42.0008 0.864203 40.5756 0.597506C36.3862 -0.198037 10.2508 -0.2003 6.06373 0.597506C4.92077 0.811768 3.90301 1.32967 3.02871 2.13434C-0.65516 5.55353 0.499191 23.8896 1.38715 26.8598C1.76054 28.1454 2.24324 29.0726 2.85115 29.6812C3.63437 30.4858 4.70673 31.0399 5.93848 31.2883C9.38784 32.0018 27.1583 32.4007 40.5027 31.3955C41.7321 31.1812 42.8204 30.6093 43.6788 29.7705C47.0849 26.365 46.8527 6.99916 44.1251 2.70465Z" fill="white"/>
</svg>
